<?xml version="1.0" encoding="utf-8"?>
<!-- Svg Vector Icons : http://www.onlinewebfonts.com/icon -->
<!DOCTYPE svg PUBLIC "-//W3C//DTD SVG 1.1//EN" "http://www.w3.org/Graphics/SVG/1.1/DTD/svg11.dtd">
<svg version="1.1" xmlns="http://www.w3.org/2000/svg" xmlns:xlink="http://www.w3.org/1999/xlink" x="0px" y="0px" viewBox="0 0 256 256" enable-background="new 0 0 256 256" xml:space="preserve">
<metadata> Svg Vector Icons : http://www.onlinewebfonts.com/icon </metadata>
<g><g><g><path fill="#1a4e8a" d="M45.4,59.9c-0.1,0.6-0.3,1.9-0.5,3c-0.1,1-0.7,3.2-1.2,4.7C41.3,74.1,42.2,82.1,46,90c1,2.1,2.2,4.9,2.7,6.3c4.1,12.9,21.5,17.7,47.1,12.9c2.8-0.5,5.5-1.1,5.8-1.4c0.9-0.5,0.2-1.4-1.9-2.3c-1.2-0.5-2.4-1.7-3.6-3.4C92.5,97,83.9,91.5,73.3,87.6c-4.2-1.6-4.9-1.9-4.9-2.8c0-0.6-0.9-2.8-2-5c-2.2-4.4-8-10.9-12.3-13.8c-1.3-0.9-2.5-1.9-2.7-2.5c-0.1-0.5-1-1.7-1.9-2.7C47.6,58.6,45.8,58.2,45.4,59.9z"/><path fill="#1a4e8a" d="M13,73.3c-3.3,1.5-3-3.4-3,61.2c0,64.3-0.2,60.2,3,61.8c2.1,1,11,1.1,13.3,0.1c2.8-1.2,3.1-2.4,3.1-12.4v-8.8H128h98.5v9c0,8.5,0,9,1,10.3c1.6,2,3.6,2.6,9.3,2.6c5.7,0,7.8-0.8,8.7-3.1c0.6-1.6,0.6-84.7,0-86.3c-0.9-2.4-3-3.1-8.7-3.1c-5.7,0-7.6,0.6-9.3,2.6c-1,1.3-1,1.4-1,26.4v25.1H128H29.5v-41.3V76l-1.4-1.5l-1.4-1.6l-6.1-0.1C16.2,72.7,14.1,72.9,13,73.3z"/><path fill="#1a4e8a" d="M41.3,118.1c-2.6,1.4-2.8,2.3-2.8,16.4c0,14.2,0,14.3,2.8,15.8c1.2,0.6,12,0.7,87.1,0.7c65.4,0,86-0.1,86.9-0.6c2.5-1.1,2.6-2,2.6-16.6v-13.3l-1.6-1.6l-1.6-1.6h-86.1C53.4,117.4,42.4,117.5,41.3,118.1z"/></g></g></g>
</svg>