<?xml version="1.0" encoding="utf-8"?>
<!-- Svg Vector Icons : http://www.onlinewebfonts.com/icon -->
<!DOCTYPE svg PUBLIC "-//W3C//DTD SVG 1.1//EN" "http://www.w3.org/Graphics/SVG/1.1/DTD/svg11.dtd">
<svg version="1.1" xmlns="http://www.w3.org/2000/svg" xmlns:xlink="http://www.w3.org/1999/xlink" x="0px" y="0px" viewBox="0 0 256 256" enable-background="new 0 0 256 256" xml:space="preserve">
<metadata> Svg Vector Icons : http://www.onlinewebfonts.com/icon </metadata>
<g><g><path fill="#1a4e8a" d="M128,10c-45.1,0-81.7,35.8-81.7,79.9c0,44.1,54.5,102.7,81.7,156.1c28.3-53.4,81.7-111.9,81.7-156.1C209.7,45.8,173.1,10,128,10z M128,135.5c-25.4,0-45.9-20.2-45.9-45.2c0-24.9,20.6-45.2,45.9-45.2c25.4,0,45.9,20.2,45.9,45.2C173.9,115.3,153.4,135.5,128,135.5z M128,70.3c-11.3,0-20.4,9-20.4,20.1s9.2,20.1,20.4,20.1c11.3,0,20.4-9,20.4-20.1C148.4,79.3,139.3,70.3,128,70.3z"/></g></g>
</svg>